<?xml version="1.0" encoding="utf-8"?>
<!-- Generator: Adobe Illustrator 16.0.3, SVG Export Plug-In . SVG Version: 6.00 Build 0)  -->
<!DOCTYPE svg PUBLIC "-//W3C//DTD SVG 1.1//EN" "http://www.w3.org/Graphics/SVG/1.1/DTD/svg11.dtd">
<svg version="1.1" id="Sonatra_Logo" xmlns="http://www.w3.org/2000/svg" xmlns:xlink="http://www.w3.org/1999/xlink" x="0px"
	 y="0px" width="311.811px" height="90.708px" viewBox="0 0 311.811 90.708" enable-background="new 0 0 311.811 90.708"
	 xml:space="preserve">
<g id="sonatra">
	<path id="a_1_" fill="#555555" d="M295.748,40.76c0-1.299-0.188-2.393-0.563-3.281c-0.377-0.889-0.906-1.595-1.59-2.119
		c-0.684-0.524-1.504-0.9-2.461-1.128c-0.957-0.228-2.018-0.342-3.18-0.342s-2.203,0.063-3.127,0.188
		c-0.922,0.125-1.771,0.336-2.547,0.632c-0.775,0.296-1.498,0.61-2.17,0.94c-0.672,0.331-1.35,0.701-2.033,1.111
		c-0.389,0.228-0.787,0.342-1.197,0.342c-0.57,0-1.049-0.193-1.436-0.581c-0.387-0.387-0.58-0.843-0.58-1.367
		c0-0.524,0.227-1.002,0.684-1.436c1.412-1.367,3.189-2.387,5.332-3.059c2.141-0.672,4.557-1.008,7.246-1.008
		c1.982,0,3.764,0.222,5.35,0.667c1.582,0.444,2.939,1.14,4.066,2.085c1.129,0.946,1.995,2.148,2.598,3.606
		c0.604,1.458,0.906,3.213,0.906,5.264l-0.035,20.576c0,0.798-0.279,1.401-0.836,1.812c-0.561,0.41-1.17,0.615-1.831,0.615
		c-0.639,0-1.225-0.188-1.76-0.564c-0.535-0.376-0.802-0.962-0.802-1.76v-3.145c-0.479,1.003-1.111,1.892-1.896,2.666
		c-0.787,0.775-1.676,1.424-2.666,1.948c-0.992,0.524-2.064,0.923-3.213,1.196c-1.152,0.273-2.309,0.41-3.471,0.41
		c-1.641,0-3.168-0.222-4.58-0.667s-2.643-1.105-3.691-1.982c-1.049-0.877-1.875-1.948-2.477-3.213
		c-0.605-1.265-0.906-2.706-0.906-4.324c0-2.096,0.461-3.856,1.385-5.281c0.922-1.424,2.215-2.575,3.879-3.452
		c1.662-0.877,3.662-1.509,5.998-1.897c2.336-0.387,4.916-0.581,7.742-0.581c0.592,0,1.225,0.012,1.896,0.034
		c0.672,0.023,1.326,0.046,1.965,0.068V40.76z M295.715,47.733c-1.025,0.046-2.16,0.063-3.4,0.051
		c-1.244-0.011-2.508,0.017-3.795,0.085s-2.535,0.217-3.742,0.444c-1.209,0.228-2.285,0.593-3.23,1.094
		c-0.945,0.501-1.703,1.179-2.273,2.034s-0.854,1.943-0.854,3.264c0,1.048,0.193,1.943,0.58,2.683
		c0.387,0.741,0.912,1.362,1.572,1.863c0.66,0.501,1.441,0.877,2.342,1.128c0.9,0.251,1.852,0.388,2.854,0.41
		c1.344-0.022,2.609-0.25,3.795-0.684c1.184-0.433,2.221-1.048,3.109-1.846c0.889-0.797,1.602-1.823,2.137-3.076
		c0.535-1.253,0.838-2.746,0.906-4.478V47.733z"/>
	<path id="r" fill="#555555" d="M251.555,33.001c0-0.82,0.277-1.458,0.836-1.914c0.559-0.456,1.248-0.684,2.068-0.684
		c0.797,0,1.424,0.228,1.881,0.684c0.455,0.456,0.684,1.094,0.684,1.914v3.042c0.342-0.979,0.773-1.868,1.299-2.666
		c0.523-0.797,1.162-1.47,1.914-2.017s1.635-0.968,2.648-1.265c1.014-0.296,2.182-0.444,3.504-0.444
		c0.889,0,1.566,0.251,2.033,0.752c0.467,0.501,0.701,1.048,0.701,1.641c0,0.57-0.229,1.1-0.684,1.589
		c-0.457,0.49-1.162,0.735-2.119,0.735c-1.482,0-2.799,0.245-3.949,0.735c-1.15,0.49-2.119,1.191-2.904,2.102
		c-0.787,0.912-1.391,2.022-1.813,3.333c-0.422,1.311-0.631,2.786-0.631,4.426v16.782c0,0.843-0.291,1.476-0.873,1.897
		c-0.58,0.422-1.225,0.632-1.93,0.632c-0.342,0-0.674-0.051-0.992-0.154s-0.604-0.256-0.854-0.461
		c-0.252-0.205-0.451-0.467-0.6-0.786c-0.148-0.319-0.221-0.695-0.221-1.128V33.001z"/>
	<path id="t" fill="#555555" d="M230.26,30.404l0.445-9.639c0.045-0.729,0.346-1.299,0.904-1.709s1.156-0.615,1.795-0.615
		c0.57,0,1.076,0.183,1.521,0.547c0.443,0.365,0.666,0.935,0.666,1.709v9.707h6.119c0.729,0,1.275,0.217,1.641,0.649
		c0.363,0.433,0.547,0.912,0.547,1.436c0,0.524-0.184,0.991-0.547,1.401c-0.365,0.41-0.912,0.615-1.641,0.615h-6.119v15.859
		c0,2.051,0.023,3.731,0.068,5.042c0.045,1.311,0.205,2.37,0.479,3.179c0.273,0.809,0.695,1.379,1.266,1.709
		c0.568,0.331,1.367,0.496,2.393,0.496c0.592,0,1.219-0.051,1.879-0.154s1.219-0.154,1.676-0.154c0.66,0,1.156,0.2,1.486,0.598
		c0.33,0.399,0.496,0.792,0.496,1.179c0,0.593-0.205,1.065-0.615,1.418c-0.41,0.354-0.953,0.632-1.625,0.837
		s-1.379,0.342-2.119,0.41s-1.383,0.103-1.93,0.103c-1.527,0-2.85-0.2-3.965-0.598c-1.117-0.398-2.047-1.054-2.787-1.965
		c-0.74-0.911-1.287-2.107-1.641-3.589c-0.354-1.481-0.529-3.315-0.529-5.503V34.505h-4.135c-0.73,0-1.283-0.21-1.658-0.632
		c-0.377-0.421-0.564-0.894-0.564-1.418c0-0.524,0.188-0.997,0.564-1.418c0.375-0.421,0.928-0.632,1.658-0.632H230.26z"/>
	<path id="a" fill="#555555" d="M211.734,40.76c0-1.299-0.188-2.393-0.563-3.281c-0.377-0.889-0.906-1.595-1.59-2.119
		c-0.684-0.524-1.504-0.9-2.461-1.128c-0.957-0.228-2.018-0.342-3.18-0.342s-2.203,0.063-3.127,0.188
		c-0.922,0.125-1.771,0.336-2.547,0.632c-0.775,0.296-1.498,0.61-2.17,0.94c-0.672,0.331-1.35,0.701-2.033,1.111
		c-0.389,0.228-0.787,0.342-1.197,0.342c-0.57,0-1.049-0.193-1.436-0.581c-0.387-0.387-0.58-0.843-0.58-1.367
		c0-0.524,0.227-1.002,0.684-1.436c1.412-1.367,3.189-2.387,5.332-3.059c2.141-0.672,4.557-1.008,7.246-1.008
		c1.982,0,3.764,0.222,5.35,0.667c1.582,0.444,2.939,1.14,4.066,2.085c1.129,0.946,1.994,2.148,2.598,3.606
		c0.604,1.458,0.906,3.213,0.906,5.264l-0.035,20.576c0,0.798-0.279,1.401-0.836,1.812c-0.561,0.41-1.17,0.615-1.83,0.615
		c-0.639,0-1.225-0.188-1.76-0.564s-0.803-0.962-0.803-1.76v-3.145c-0.479,1.003-1.111,1.892-1.896,2.666
		c-0.787,0.775-1.676,1.424-2.666,1.948c-0.992,0.524-2.064,0.923-3.213,1.196c-1.152,0.273-2.309,0.41-3.471,0.41
		c-1.641,0-3.168-0.222-4.58-0.667s-2.643-1.105-3.691-1.982c-1.049-0.877-1.875-1.948-2.477-3.213
		c-0.605-1.265-0.906-2.706-0.906-4.324c0-2.096,0.461-3.856,1.385-5.281c0.922-1.424,2.215-2.575,3.879-3.452
		c1.662-0.877,3.662-1.509,5.998-1.897c2.336-0.387,4.916-0.581,7.742-0.581c0.592,0,1.225,0.012,1.896,0.034
		c0.672,0.023,1.326,0.046,1.965,0.068V40.76z M211.701,47.733c-1.025,0.046-2.16,0.063-3.4,0.051
		c-1.244-0.011-2.508,0.017-3.795,0.085s-2.535,0.217-3.742,0.444c-1.209,0.228-2.285,0.593-3.23,1.094
		c-0.945,0.501-1.703,1.179-2.273,2.034s-0.854,1.943-0.854,3.264c0,1.048,0.193,1.943,0.58,2.683
		c0.387,0.741,0.912,1.362,1.572,1.863c0.66,0.501,1.441,0.877,2.342,1.128c0.9,0.251,1.852,0.388,2.854,0.41
		c1.344-0.022,2.609-0.25,3.795-0.684c1.184-0.433,2.221-1.048,3.109-1.846c0.889-0.797,1.602-1.823,2.137-3.076
		c0.535-1.253,0.838-2.746,0.906-4.478V47.733z"/>
	<path id="n" fill="#555555" d="M152.194,32.933c0-0.82,0.29-1.441,0.872-1.863c0.58-0.421,1.213-0.632,1.896-0.632
		c1.23,0,2.033,0.456,2.41,1.367c0.375,0.912,0.472,2.324,0.29,4.238c0.455-1.025,1.082-1.908,1.88-2.649
		c0.797-0.74,1.703-1.396,2.717-1.965c1.014-0.569,2.103-1.008,3.264-1.316c1.162-0.308,2.336-0.461,3.521-0.461
		c1.641,0,3.189,0.251,4.648,0.752c1.457,0.501,2.744,1.288,3.861,2.358c1.117,1.071,2,2.438,2.65,4.102
		c0.648,1.664,0.973,3.669,0.973,6.016v18.799c0,0.866-0.289,1.516-0.871,1.948c-0.58,0.433-1.213,0.649-1.896,0.649
		s-1.305-0.216-1.863-0.649c-0.559-0.433-0.838-1.082-0.838-1.948V42.435c0-1.481-0.217-2.746-0.648-3.794
		c-0.434-1.048-1.016-1.931-1.744-2.649s-1.561-1.248-2.494-1.589c-0.936-0.342-1.914-0.513-2.939-0.513
		c-1.414,0-2.734,0.228-3.965,0.684c-1.23,0.456-2.313,1.094-3.247,1.914c-0.935,0.82-1.67,1.914-2.204,3.281
		c-0.536,1.367-0.804,2.974-0.804,4.819v17.09c0,0.866-0.29,1.516-0.872,1.948c-0.58,0.433-1.213,0.649-1.896,0.649
		s-1.305-0.216-1.863-0.649c-0.559-0.433-0.837-1.082-0.837-1.948V32.933z"/>
	<path id="o" fill="#555555" d="M110.119,47.323c0-2.096,0.342-4.221,1.025-6.375s1.72-4.067,3.11-5.742
		c1.39-1.675,3.145-3.019,5.264-4.033c2.119-1.014,4.614-1.521,7.485-1.521s5.371,0.507,7.502,1.521
		c2.131,1.014,3.891,2.358,5.281,4.033c1.39,1.675,2.427,3.589,3.11,5.742s1.025,4.278,1.025,6.375c0,2.142-0.342,4.284-1.025,6.426
		c-0.684,2.142-1.721,4.05-3.11,5.725c-1.391,1.675-3.15,3.02-5.281,4.033s-4.631,1.521-7.502,1.521s-5.366-0.507-7.485-1.521
		s-3.874-2.358-5.264-4.033c-1.391-1.675-2.427-3.583-3.11-5.725C110.46,51.607,110.119,49.465,110.119,47.323z M115.963,47.323
		c0,1.458,0.205,2.997,0.615,4.614c0.41,1.618,1.06,3.082,1.948,4.392c0.889,1.311,2.033,2.381,3.436,3.213
		c1.4,0.832,3.081,1.248,5.041,1.248c1.982,0,3.674-0.416,5.076-1.248c1.4-0.832,2.54-1.902,3.418-3.213
		c0.876-1.31,1.521-2.774,1.931-4.392c0.41-1.618,0.615-3.156,0.615-4.614c0-1.413-0.205-2.934-0.615-4.563
		c-0.41-1.629-1.055-3.099-1.931-4.409c-0.878-1.31-2.018-2.381-3.418-3.213c-1.402-0.832-3.094-1.248-5.076-1.248
		c-1.96,0-3.641,0.416-5.041,1.248c-1.402,0.832-2.547,1.903-3.436,3.213c-0.889,1.311-1.538,2.78-1.948,4.409
		C116.168,44.389,115.963,45.91,115.963,47.323z"/>
	<path id="s" fill="#555555" d="M81.886,38.744c0,0.798,0.188,1.464,0.564,2c0.375,0.536,0.91,0.991,1.605,1.367
		s1.526,0.695,2.496,0.957c0.968,0.262,2.038,0.536,3.213,0.82c1.173,0.285,2.438,0.593,3.793,0.923
		c1.355,0.331,2.763,0.747,4.222,1.248c1.937,0.615,3.47,1.624,4.597,3.025c1.129,1.401,1.692,3.059,1.692,4.973
		s-0.416,3.561-1.247,4.939c-0.833,1.379-1.938,2.512-3.316,3.401s-2.968,1.55-4.768,1.982c-1.801,0.433-3.669,0.649-5.605,0.649
		c-1.618,0-3.213-0.16-4.785-0.479s-2.974-0.729-4.204-1.23c-1.23-0.501-2.228-1.071-2.991-1.709
		c-0.764-0.638-1.145-1.265-1.145-1.88c0-0.524,0.21-0.974,0.633-1.35c0.421-0.376,0.962-0.564,1.623-0.564
		c0.364,0,0.899,0.166,1.606,0.496c0.706,0.331,1.556,0.672,2.546,1.025c0.992,0.354,2.125,0.684,3.401,0.991
		c1.275,0.308,2.688,0.461,4.238,0.461c1.048,0,2.079-0.108,3.093-0.325c1.014-0.216,1.926-0.575,2.734-1.077
		c0.809-0.501,1.458-1.133,1.949-1.897c0.489-0.763,0.734-1.692,0.734-2.786c0-1.321-0.428-2.358-1.281-3.11
		c-0.855-0.752-1.978-1.355-3.367-1.812c-1.208-0.387-2.484-0.723-3.828-1.008c-1.345-0.285-2.666-0.581-3.965-0.889
		s-2.535-0.667-3.709-1.077s-2.21-0.951-3.109-1.624c-0.901-0.672-1.613-1.504-2.137-2.495c-0.524-0.991-0.786-2.227-0.786-3.708
		c0-1.731,0.376-3.19,1.128-4.375c0.752-1.185,1.754-2.147,3.008-2.888c1.253-0.74,2.684-1.27,4.289-1.589
		c1.607-0.319,3.265-0.479,4.974-0.479c2.073,0,3.88,0.177,5.417,0.53c1.539,0.354,2.809,0.786,3.812,1.299
		c1.002,0.513,1.748,1.06,2.239,1.641c0.489,0.581,0.734,1.111,0.734,1.589c0,0.501-0.205,0.917-0.615,1.248
		c-0.41,0.331-0.912,0.496-1.504,0.496c-0.251,0-0.519-0.034-0.803-0.103c-0.286-0.068-0.554-0.193-0.804-0.376
		c-0.524-0.342-1.077-0.649-1.657-0.923c-0.582-0.273-1.214-0.496-1.897-0.667s-1.441-0.296-2.272-0.376
		c-0.833-0.08-1.772-0.12-2.82-0.12c-1.025,0-2,0.08-2.922,0.239c-0.924,0.16-1.744,0.422-2.461,0.786
		c-0.719,0.365-1.288,0.866-1.709,1.504C82.096,37.058,81.886,37.833,81.886,38.744z"/>
</g>
<path id="Symbol_1_" fill="#555555" d="M13.965,50.348c-0.843-0.51-1.464-1.172-1.863-1.986c-0.399-0.813-0.598-1.651-0.598-2.512
	c0-0.893,0.205-1.762,0.615-2.608c0.41-0.845,1.048-1.523,1.914-2.034l29.565-17.37c0.319-0.159,0.672-0.239,1.06-0.239
	c0.41,0,0.78,0.112,1.111,0.335c0.33,0.224,0.615,0.519,0.854,0.885c0.239,0.367,0.427,0.782,0.564,1.244
	c0.137,0.463,0.205,0.933,0.205,1.412c0,0.67-0.137,1.292-0.41,1.866s-0.707,1.037-1.299,1.388L19.673,45.85l26.079,15.839
	c0.592,0.352,1.02,0.813,1.282,1.388c0.262,0.574,0.381,1.196,0.359,1.866c0,0.957-0.239,1.835-0.718,2.632
	c-0.479,0.798-1.105,1.196-1.88,1.196c-0.183,0-0.371-0.024-0.564-0.072c-0.194-0.048-0.382-0.135-0.564-0.263L13.965,50.348z
	 M62.144,70.94c0.775,0,1.459,0.152,2.051,0.455c0.592,0.304,1.088,0.694,1.488,1.172c0.396,0.479,0.699,1.021,0.904,1.627
	c0.205,0.606,0.309,1.229,0.309,1.866c0,0.67-0.104,1.316-0.309,1.938s-0.508,1.172-0.904,1.651c-0.4,0.479-0.896,0.87-1.488,1.172
	c-0.592,0.304-1.275,0.455-2.051,0.455c-0.797,0-1.492-0.151-2.084-0.455c-0.594-0.303-1.09-0.694-1.486-1.172
	c-0.4-0.479-0.701-1.029-0.906-1.651s-0.309-1.268-0.309-1.938c0-0.605,0.104-1.22,0.309-1.842s0.506-1.172,0.906-1.651
	c0.396-0.479,0.893-0.869,1.486-1.172C60.652,71.092,61.347,70.94,62.144,70.94z M57.462,16.006c0-0.063-0.006-0.135-0.018-0.215
	c-0.012-0.079-0.018-0.167-0.018-0.263c0-0.829,0.131-1.555,0.395-2.177c0.26-0.622,0.607-1.148,1.041-1.579
	s0.928-0.749,1.488-0.957c0.557-0.207,1.121-0.311,1.691-0.311c0.568,0,1.121,0.104,1.658,0.311
	c0.533,0.208,1.008,0.526,1.418,0.957s0.74,0.974,0.99,1.627c0.25,0.654,0.377,1.428,0.377,2.321v0.287l-1.094,41.774
	c-0.023,0.926-0.137,1.731-0.342,2.417c-0.205,0.687-0.475,1.261-0.803,1.723c-0.332,0.463-0.697,0.813-1.094,1.053
	c-0.4,0.239-0.805,0.359-1.215,0.359s-0.814-0.12-1.213-0.359s-0.758-0.59-1.076-1.053c-0.32-0.462-0.582-1.036-0.787-1.723
	c-0.205-0.686-0.318-1.491-0.342-2.417L57.462,16.006z"/>
</svg>
