<?xml version="1.0" encoding="utf-8"?>
<!-- Generator: Adobe Illustrator 16.0.3, SVG Export Plug-In . SVG Version: 6.00 Build 0)  -->
<!DOCTYPE svg PUBLIC "-//W3C//DTD SVG 1.1//EN" "http://www.w3.org/Graphics/SVG/1.1/DTD/svg11.dtd" [
	<!ENTITY ns_extend "http://ns.adobe.com/Extensibility/1.0/">
	<!ENTITY ns_ai "http://ns.adobe.com/AdobeIllustrator/10.0/">
	<!ENTITY ns_graphs "http://ns.adobe.com/Graphs/1.0/">
	<!ENTITY ns_vars "http://ns.adobe.com/Variables/1.0/">
	<!ENTITY ns_imrep "http://ns.adobe.com/ImageReplacement/1.0/">
	<!ENTITY ns_sfw "http://ns.adobe.com/SaveForWeb/1.0/">
	<!ENTITY ns_custom "http://ns.adobe.com/GenericCustomNamespace/1.0/">
	<!ENTITY ns_adobe_xpath "http://ns.adobe.com/XPath/1.0/">
]>
<svg version="1.1" id="Calque_1" xmlns:x="&ns_extend;" xmlns:i="&ns_ai;" xmlns:graph="&ns_graphs;"
	 xmlns="http://www.w3.org/2000/svg" xmlns:xlink="http://www.w3.org/1999/xlink" x="0px" y="0px" width="164px" height="40px"
	 viewBox="0 0 164 40" enable-background="new 0 0 164 40" xml:space="preserve">
<metadata>
	<sfw  xmlns="&ns_sfw;">
		<slices></slices>
		<sliceSourceBounds  width="163.657" height="40" y="400.5" x="215.5" bottomLeftOrigin="true"></sliceSourceBounds>
	</sfw>
</metadata>
<g>
	<g id="sonatra_1_">
		<path id="a_3_" fill="#FFFFFF" d="M160.662,17.101c0-0.734-0.107-1.352-0.319-1.854c-0.212-0.503-0.512-0.901-0.897-1.198
			c-0.387-0.296-0.85-0.509-1.391-0.637c-0.541-0.129-1.142-0.194-1.799-0.194c-0.656,0-1.244,0.036-1.768,0.107
			c-0.521,0.07-1.002,0.189-1.44,0.357c-0.438,0.167-0.845,0.344-1.226,0.531c-0.381,0.188-0.764,0.396-1.148,0.629
			c-0.22,0.128-0.445,0.192-0.677,0.192c-0.324,0-0.593-0.11-0.812-0.329c-0.22-0.219-0.33-0.475-0.33-0.773
			c0-0.295,0.129-0.565,0.388-0.811c0.798-0.773,1.802-1.349,3.013-1.729s2.577-0.569,4.098-0.569c1.119,0,2.127,0.125,3.021,0.377
			c0.896,0.251,1.664,0.644,2.301,1.178c0.639,0.535,1.127,1.214,1.469,2.039c0.34,0.825,0.513,1.816,0.513,2.976l-0.021,11.63
			c0,0.451-0.158,0.789-0.473,1.022c-0.316,0.231-0.662,0.349-1.035,0.349c-0.359,0-0.691-0.106-0.994-0.32
			c-0.303-0.213-0.453-0.542-0.453-0.994v-1.777c-0.271,0.567-0.629,1.07-1.072,1.508c-0.444,0.438-0.947,0.806-1.506,1.103
			c-0.562,0.295-1.166,0.521-1.816,0.675c-0.651,0.154-1.307,0.232-1.962,0.232c-0.927,0-1.79-0.127-2.589-0.377
			c-0.799-0.252-1.493-0.627-2.086-1.12c-0.594-0.497-1.061-1.103-1.4-1.817c-0.342-0.715-0.512-1.529-0.512-2.445
			c0-1.186,0.26-2.179,0.783-2.983c0.521-0.804,1.25-1.455,2.19-1.95c0.938-0.497,2.071-0.854,3.392-1.073
			c1.318-0.218,2.778-0.329,4.375-0.329c0.334,0,0.692,0.007,1.071,0.021c0.382,0.013,0.749,0.024,1.11,0.038v-1.681h0.002V17.101z
			 M160.643,21.042c-0.578,0.026-1.223,0.036-1.922,0.028c-0.703-0.006-1.416,0.011-2.145,0.05c-0.729,0.036-1.434,0.12-2.116,0.251
			c-0.685,0.127-1.292,0.334-1.826,0.617s-0.962,0.667-1.284,1.148s-0.481,1.1-0.481,1.846c0,0.592,0.108,1.099,0.327,1.516
			c0.22,0.418,0.518,0.771,0.89,1.055c0.373,0.282,0.813,0.495,1.323,0.639c0.508,0.141,1.048,0.219,1.613,0.23
			c0.759-0.013,1.474-0.141,2.145-0.386c0.669-0.245,1.256-0.593,1.759-1.044c0.503-0.45,0.905-1.029,1.207-1.738
			c0.302-0.708,0.474-1.551,0.513-2.529L160.643,21.042L160.643,21.042z"/>
		<path id="r_1_" fill="#FFFFFF" d="M135.682,12.716c0-0.464,0.157-0.825,0.473-1.082c0.316-0.257,0.705-0.385,1.169-0.385
			c0.45,0,0.805,0.128,1.063,0.385c0.256,0.257,0.387,0.618,0.387,1.082v1.72c0.193-0.554,0.437-1.056,0.733-1.507
			c0.298-0.45,0.656-0.83,1.082-1.14c0.427-0.31,0.925-0.547,1.498-0.715c0.572-0.167,1.233-0.25,1.979-0.25
			c0.502,0,0.886,0.141,1.148,0.425c0.264,0.283,0.396,0.592,0.396,0.927c0,0.322-0.129,0.622-0.385,0.898
			c-0.26,0.278-0.658,0.416-1.199,0.416c-0.836,0-1.582,0.139-2.23,0.415c-0.648,0.278-1.197,0.674-1.643,1.188
			c-0.443,0.516-0.784,1.146-1.023,1.884c-0.238,0.739-0.355,1.574-0.355,2.5v9.487c0,0.475-0.164,0.832-0.493,1.072
			c-0.328,0.236-0.693,0.355-1.093,0.355c-0.192,0-0.381-0.027-0.562-0.088c-0.179-0.057-0.341-0.145-0.481-0.259
			c-0.143-0.116-0.256-0.265-0.338-0.444c-0.084-0.181-0.125-0.393-0.125-0.638v-16.25h-0.002V12.716z"/>
		<path id="t_1_" fill="#FFFFFF" d="M123.646,11.248l0.252-5.45c0.023-0.412,0.193-0.734,0.511-0.964
			c0.315-0.233,0.653-0.348,1.015-0.348c0.322,0,0.608,0.103,0.86,0.309c0.25,0.206,0.377,0.527,0.377,0.966v5.487h3.459
			c0.412,0,0.721,0.122,0.926,0.366c0.205,0.247,0.31,0.516,0.31,0.812c0,0.297-0.104,0.561-0.31,0.792
			c-0.205,0.233-0.517,0.348-0.926,0.348h-3.459v8.961c0,1.16,0.012,2.109,0.037,2.85c0.026,0.741,0.116,1.342,0.271,1.798
			c0.155,0.457,0.393,0.78,0.715,0.966c0.322,0.188,0.774,0.279,1.354,0.279c0.335,0,0.689-0.027,1.063-0.086
			c0.371-0.059,0.688-0.087,0.946-0.087c0.373,0,0.654,0.11,0.841,0.338c0.188,0.226,0.28,0.446,0.28,0.666
			c0,0.336-0.114,0.603-0.349,0.802c-0.23,0.2-0.539,0.357-0.918,0.475c-0.381,0.115-0.78,0.191-1.198,0.23
			c-0.417,0.038-0.781,0.059-1.091,0.059c-0.863,0-1.61-0.112-2.24-0.338c-0.632-0.226-1.157-0.597-1.575-1.109
			c-0.419-0.516-0.729-1.191-0.928-2.029c-0.2-0.837-0.3-1.874-0.3-3.111V13.565h-2.336c-0.414,0-0.726-0.12-0.938-0.357
			c-0.212-0.239-0.318-0.506-0.318-0.802c0-0.296,0.106-0.563,0.318-0.801c0.213-0.239,0.523-0.357,0.938-0.357H123.646
			L123.646,11.248L123.646,11.248z"/>
		<path id="a_1_" fill="#FFFFFF" d="M113.174,17.101c0-0.734-0.104-1.352-0.316-1.854c-0.213-0.503-0.514-0.901-0.899-1.198
			c-0.385-0.296-0.849-0.509-1.392-0.637c-0.539-0.129-1.14-0.194-1.797-0.194c-0.656,0-1.244,0.036-1.769,0.107
			c-0.521,0.07-1.001,0.189-1.438,0.357c-0.438,0.167-0.846,0.344-1.228,0.531c-0.38,0.188-0.763,0.396-1.149,0.629
			c-0.219,0.128-0.443,0.192-0.676,0.192c-0.322,0-0.593-0.11-0.812-0.329c-0.22-0.219-0.329-0.475-0.329-0.773
			c0-0.295,0.128-0.565,0.387-0.811c0.799-0.773,1.803-1.349,3.014-1.729s2.578-0.569,4.097-0.569c1.12,0,2.128,0.125,3.024,0.377
			c0.895,0.251,1.66,0.644,2.297,1.178c0.641,0.535,1.127,1.214,1.47,2.039c0.341,0.825,0.513,1.816,0.513,2.976l-0.021,11.63
			c0,0.451-0.155,0.789-0.472,1.022c-0.317,0.231-0.659,0.349-1.034,0.349c-0.361,0-0.692-0.106-0.994-0.32
			c-0.303-0.213-0.455-0.542-0.455-0.994v-1.777c-0.271,0.567-0.627,1.07-1.069,1.508c-0.446,0.438-0.948,0.806-1.507,1.103
			c-0.561,0.295-1.167,0.521-1.818,0.675c-0.648,0.154-1.305,0.232-1.959,0.232c-0.928,0-1.792-0.127-2.59-0.377
			c-0.798-0.252-1.494-0.627-2.087-1.12c-0.595-0.497-1.062-1.103-1.399-1.817c-0.342-0.715-0.515-1.529-0.515-2.445
			c0-1.186,0.261-2.179,0.784-2.983c0.521-0.804,1.251-1.455,2.191-1.95c0.94-0.497,2.07-0.854,3.389-1.073
			c1.322-0.218,2.781-0.329,4.378-0.329c0.336,0,0.692,0.007,1.071,0.021c0.379,0.013,0.748,0.024,1.109,0.038v-1.681h0.002V17.101z
			 M113.154,21.042c-0.577,0.026-1.221,0.036-1.922,0.028c-0.7-0.006-1.416,0.011-2.144,0.05c-0.729,0.036-1.433,0.12-2.114,0.251
			c-0.684,0.127-1.293,0.334-1.826,0.617c-0.534,0.283-0.965,0.667-1.283,1.148c-0.324,0.481-0.484,1.1-0.484,1.846
			c0,0.592,0.111,1.099,0.329,1.516c0.218,0.418,0.517,0.771,0.89,1.055c0.373,0.282,0.814,0.495,1.322,0.639
			c0.51,0.141,1.047,0.219,1.612,0.23c0.76-0.013,1.476-0.141,2.146-0.386c0.668-0.245,1.256-0.593,1.758-1.044
			c0.502-0.45,0.906-1.029,1.207-1.738c0.304-0.708,0.474-1.551,0.514-2.529v-1.683H113.154z"/>
		<path id="n_1_" fill="#FFFFFF" d="M79.521,12.677c0-0.464,0.163-0.814,0.494-1.054c0.328-0.239,0.686-0.357,1.071-0.357
			c0.695,0,1.148,0.257,1.361,0.773c0.213,0.516,0.268,1.313,0.165,2.396c0.256-0.58,0.611-1.079,1.063-1.498
			c0.452-0.419,0.963-0.788,1.537-1.11c0.572-0.323,1.188-0.569,1.844-0.744c0.656-0.173,1.321-0.26,1.99-0.26
			c0.928,0,1.805,0.142,2.628,0.426c0.823,0.283,1.55,0.728,2.183,1.332c0.631,0.606,1.129,1.379,1.498,2.318
			c0.365,0.941,0.551,2.075,0.551,3.4v10.626c0,0.489-0.164,0.856-0.493,1.103c-0.326,0.244-0.687,0.365-1.071,0.365
			c-0.387,0-0.736-0.121-1.053-0.365c-0.314-0.246-0.475-0.612-0.475-1.103V18.049c0-0.838-0.123-1.553-0.367-2.145
			c-0.244-0.592-0.573-1.092-0.984-1.498c-0.412-0.406-0.882-0.705-1.41-0.899c-0.527-0.193-1.082-0.29-1.66-0.29
			c-0.801,0-1.547,0.128-2.242,0.387c-0.695,0.256-1.309,0.618-1.836,1.081c-0.527,0.464-0.942,1.082-1.246,1.855
			c-0.303,0.773-0.453,1.681-0.453,2.724v9.66c0,0.489-0.164,0.856-0.492,1.102c-0.328,0.244-0.686,0.367-1.072,0.367
			c-0.386,0-0.737-0.123-1.055-0.367c-0.315-0.245-0.472-0.611-0.472-1.102L79.521,12.677L79.521,12.677z"/>
		<path id="o_1_" fill="#FFFFFF" d="M55.739,20.811c0-1.186,0.193-2.386,0.579-3.604c0.387-1.217,0.971-2.298,1.757-3.247
			c0.786-0.946,1.778-1.706,2.975-2.279c1.198-0.573,2.608-0.859,4.231-0.859c1.623,0,3.037,0.287,4.24,0.859
			c1.204,0.573,2.199,1.333,2.986,2.279c0.785,0.948,1.37,2.03,1.757,3.247c0.386,1.217,0.58,2.418,0.58,3.604
			c0,1.211-0.194,2.422-0.58,3.633c-0.385,1.211-0.971,2.289-1.757,3.236c-0.786,0.945-1.781,1.705-2.986,2.278
			c-1.204,0.573-2.617,0.86-4.24,0.86c-1.623,0-3.033-0.287-4.231-0.86c-1.197-0.573-2.189-1.333-2.975-2.278
			c-0.786-0.947-1.37-2.025-1.757-3.236C55.933,23.232,55.739,22.021,55.739,20.811z M59.042,20.811
			c0,0.824,0.115,1.694,0.348,2.608c0.231,0.915,0.599,1.742,1.102,2.483c0.501,0.74,1.148,1.346,1.942,1.815
			c0.792,0.47,1.741,0.703,2.849,0.703c1.121,0,2.077-0.233,2.869-0.703c0.792-0.471,1.436-1.075,1.932-1.815
			c0.495-0.741,0.859-1.568,1.091-2.483c0.231-0.914,0.348-1.783,0.348-2.608c0-0.797-0.116-1.658-0.348-2.58
			c-0.232-0.922-0.596-1.751-1.091-2.491c-0.496-0.741-1.14-1.346-1.932-1.817c-0.792-0.47-1.748-0.705-2.869-0.705
			c-1.107,0-2.057,0.236-2.849,0.705c-0.792,0.472-1.439,1.077-1.942,1.817c-0.503,0.741-0.87,1.571-1.102,2.491
			S59.042,20.013,59.042,20.811z"/>
		<path id="s_1_" fill="#FFFFFF" d="M39.782,15.961c0,0.451,0.105,0.828,0.319,1.13c0.212,0.303,0.515,0.561,0.907,0.773
			c0.393,0.212,0.863,0.393,1.411,0.54c0.547,0.15,1.152,0.304,1.816,0.464c0.663,0.162,1.378,0.336,2.144,0.521
			c0.767,0.188,1.561,0.422,2.386,0.706c1.095,0.348,1.962,0.919,2.599,1.71c0.638,0.793,0.956,1.729,0.956,2.813
			c0,1.081-0.235,2.011-0.704,2.791c-0.472,0.779-1.095,1.42-1.875,1.922c-0.779,0.503-1.678,0.875-2.695,1.121
			c-1.018,0.244-2.074,0.367-3.168,0.367c-0.915,0-1.816-0.092-2.705-0.271c-0.889-0.18-1.681-0.411-2.376-0.695
			c-0.695-0.283-1.258-0.605-1.69-0.966c-0.432-0.358-0.647-0.714-0.647-1.063c0-0.296,0.119-0.552,0.357-0.763
			c0.238-0.213,0.544-0.319,0.917-0.319c0.205,0,0.508,0.094,0.908,0.28c0.399,0.188,0.879,0.381,1.439,0.58
			c0.561,0.2,1.2,0.385,1.923,0.561c0.72,0.174,1.519,0.26,2.395,0.26c0.594,0,1.176-0.061,1.749-0.183
			c0.573-0.122,1.089-0.325,1.546-0.608s0.824-0.641,1.101-1.072c0.276-0.431,0.415-0.955,0.415-1.574
			c0-0.744-0.241-1.332-0.724-1.758c-0.483-0.426-1.119-0.767-1.903-1.022c-0.684-0.22-1.404-0.409-2.165-0.57
			c-0.761-0.161-1.507-0.329-2.242-0.503c-0.734-0.173-1.433-0.377-2.096-0.605c-0.664-0.232-1.249-0.54-1.757-0.919
			c-0.511-0.381-0.912-0.851-1.208-1.411c-0.296-0.561-0.444-1.259-0.444-2.096c0-0.978,0.211-1.803,0.637-2.474
			c0.426-0.668,0.991-1.213,1.7-1.632s1.518-0.718,2.424-0.897c0.909-0.182,1.845-0.271,2.811-0.271c1.173,0,2.194,0.1,3.062,0.299
			c0.87,0.2,1.588,0.444,2.153,0.734c0.566,0.291,0.988,0.599,1.266,0.927c0.276,0.33,0.415,0.628,0.415,0.899
			c0,0.283-0.115,0.518-0.348,0.704c-0.231,0.188-0.516,0.281-0.851,0.281c-0.142,0-0.294-0.019-0.453-0.058
			c-0.162-0.039-0.313-0.11-0.454-0.213c-0.296-0.193-0.608-0.366-0.937-0.52c-0.329-0.155-0.687-0.281-1.073-0.378
			c-0.386-0.097-0.815-0.167-1.283-0.212c-0.472-0.045-1.002-0.068-1.595-0.068c-0.58,0-1.13,0.045-1.652,0.135
			s-0.986,0.239-1.391,0.445c-0.406,0.206-0.728,0.489-0.966,0.851C39.901,15.008,39.782,15.447,39.782,15.961z"/>
	</g>
	<path id="Symbol_2_" fill="#FFFFFF" d="M1.391,22.521c-0.477-0.289-0.828-0.664-1.053-1.123C0.112,20.938,0,20.465,0,19.979
		c0-0.505,0.115-0.996,0.348-1.474c0.231-0.477,0.592-0.861,1.082-1.149l16.711-9.819c0.18-0.089,0.38-0.135,0.598-0.135
		c0.232,0,0.442,0.063,0.628,0.188c0.187,0.127,0.348,0.294,0.482,0.501c0.136,0.208,0.242,0.442,0.318,0.703
		c0.078,0.262,0.115,0.528,0.115,0.798c0,0.378-0.077,0.73-0.231,1.055c-0.155,0.324-0.4,0.586-0.735,0.784l-14.7,8.547l14.74,8.952
		c0.335,0.198,0.576,0.459,0.725,0.785c0.148,0.324,0.215,0.676,0.202,1.055c0,0.541-0.134,1.037-0.406,1.486
		c-0.27,0.451-0.625,0.678-1.063,0.678c-0.104,0-0.209-0.015-0.318-0.041c-0.11-0.026-0.217-0.076-0.319-0.148L1.391,22.521z
		 M28.623,34.16c0.438,0,0.825,0.087,1.16,0.256c0.335,0.172,0.615,0.393,0.842,0.662c0.224,0.271,0.396,0.578,0.512,0.92
		c0.115,0.343,0.174,0.693,0.174,1.055c0,0.381-0.06,0.743-0.174,1.096c-0.116,0.353-0.288,0.662-0.512,0.934
		c-0.226,0.271-0.507,0.491-0.842,0.662C29.447,39.915,29.062,40,28.623,40c-0.45,0-0.843-0.085-1.178-0.257
		c-0.335-0.171-0.616-0.392-0.84-0.662c-0.226-0.271-0.396-0.581-0.513-0.935c-0.115-0.352-0.174-0.715-0.174-1.095
		c0-0.342,0.058-0.69,0.174-1.042c0.116-0.351,0.287-0.662,0.513-0.934c0.224-0.271,0.504-0.49,0.84-0.662
		C27.779,34.247,28.173,34.16,28.623,34.16z M25.976,3.111c0-0.036-0.003-0.077-0.009-0.122c-0.007-0.045-0.01-0.095-0.01-0.149
		c0-0.468,0.074-0.879,0.223-1.23c0.148-0.352,0.343-0.649,0.589-0.893c0.246-0.243,0.524-0.423,0.841-0.54
		C27.924,0.059,28.243,0,28.566,0c0.321,0,0.634,0.059,0.938,0.176c0.302,0.117,0.57,0.297,0.802,0.54
		c0.231,0.245,0.419,0.551,0.56,0.919c0.141,0.37,0.213,0.807,0.213,1.313V3.11L30.46,26.721c-0.014,0.523-0.077,0.979-0.194,1.367
		c-0.115,0.389-0.268,0.713-0.453,0.975c-0.187,0.261-0.394,0.459-0.618,0.595c-0.226,0.136-0.455,0.202-0.687,0.202
		c-0.232,0-0.461-0.067-0.686-0.202c-0.225-0.136-0.429-0.334-0.608-0.595c-0.181-0.262-0.329-0.586-0.445-0.975
		c-0.116-0.388-0.18-0.842-0.193-1.367L25.976,3.111z"/>
</g>
</svg>
